PathFileType  4	(X/Y/Z) C:\Users\antoi\Documents\MyRepositories\mobilecap\ResultsAnalysis
DataRate	CameraRate	NumFrames	NumMarkers	Units	OrigDataRate	OrigDataStartFrame	OrigNumFrames
100.0	100.0	5	51	mm	100.0	445	1184
Frame#	Time	r_knee			r_shank_antsup			r_ankle			r_calc			r_5meta			r_toe			L_knee			L_shank_antsup			L_ankle			L_calc			L_5meta			L_toe			r_sh2			r_sh3			r_sh4			L_sh2			L_sh3			r_thigh1			r_thigh2			r_thigh3			r_thigh4			r_thigh5			L_thigh1			L_thigh2			L_thigh3			L_thigh4			r.ASIS			r.PSIS			L.ASIS			L.PSIS			C7			R_Shoulder			L_Shoulder			R_Sternum			L_Sternum			R_humerus			R_elbow_med			R_elbow_lat			R_forearm			R_wrist_radius			R_wrist_ulna			L_humerus			L_elbow_med			L_elbow_lat			L_forearm			L_wrist_radius			L_wrist_ulna			R_HJC			L_HJC			R_HJC_reg			L_HJC_reg			
		X1	Y1	Z1	X2	Y2	Z2	X3	Y3	Z3	X4	Y4	Z4	X5	Y5	Z5	X6	Y6	Z6	X7	Y7	Z7	X8	Y8	Z8	X9	Y9	Z9	X10	Y10	Z10	X11	Y11	Z11	X12	Y12	Z12	X13	Y13	Z13	X14	Y14	Z14	X15	Y15	Z15	X16	Y16	Z16	X17	Y17	Z17	X18	Y18	Z18	X19	Y19	Z19	X20	Y20	Z20	X21	Y21	Z21	X22	Y22	Z22	X23	Y23	Z23	X24	Y24	Z24	X25	Y25	Z25	X26	Y26	Z26	X27	Y27	Z27	X28	Y28	Z28	X29	Y29	Z29	X30	Y30	Z30	X31	Y31	Z31	X32	Y32	Z32	X33	Y33	Z33	X34	Y34	Z34	X35	Y35	Z35	X36	Y36	Z36	X37	Y37	Z37	X38	Y38	Z38	X39	Y39	Z39	X40	Y40	Z40	X41	Y41	Z41	X42	Y42	Z42	X43	Y43	Z43	X44	Y44	Z44	X45	Y45	Z45	X46	Y46	Z46	X47	Y47	Z47	X48	Y48	Z48	X49	Y49	Z49	X50	Y50	Z50	X51	Y51	Z51	

445	4.44000000	-272.36499	480.67654	-414.29217	-238.69882	369.63183	-406.02909	-311.23375	92.64269	-407.83496	-350.08634	52.07145	-462.82307	-207.03761	40.22125	-351.75840	-164.33058	59.49063	-386.94136	-247.77311	479.53043	-836.42778	-205.23732	375.30747	-815.70342	-298.08834	93.04301	-857.32096	-334.36860	51.60225	-806.53443	-185.78405	37.18033	-905.78667	-137.51690	55.80976	-860.46367	-250.91681	257.20411	-408.68802	-305.45799	373.75581	-370.98019	-329.07967	264.27323	-384.67717	-267.27915	406.40215	-871.32902	-284.18071	287.02472	-893.20813	-180.61233	780.05568	-441.78564	-178.75877	671.54449	-427.84010	-230.35354	650.10112	-388.65559	-290.10358	778.79022	-415.12718	-283.70771	664.32677	-397.44614	-180.81752	768.30440	-818.30527	-168.94998	633.84421	-833.57910	-291.51536	772.13704	-835.67545	-278.39826	631.12847	-846.83908	-150.80501	929.38753	-495.54367	-321.79332	996.49064	-574.35232	-135.53126	930.69158	-741.83404	-318.49990	997.48931	-689.74736	-293.03473	1433.21540	-624.53547	-243.37101	1410.80861	-471.54447	-219.28447	1414.99745	-775.20264	-166.72321	1388.39724	-596.18398	-161.72694	1384.59846	-636.92599	-233.48959	1296.04892	-392.48859	-335.88957	1100.24226	-404.04335	-287.13245	1122.36080	-338.60194	-185.19527	1149.68554	-404.68221	-122.48987	1185.51864	-475.91188	-101.76953	1155.46541	-464.86431	-199.11641	1274.35835	-851.19675	-301.00209	1092.27976	-837.62043	-254.93792	1099.78502	-904.85610	-171.12784	1122.33058	-836.22060	-113.85794	1165.26883	-732.59606	-93.19452	1140.69599	-738.57349	-247.50967	870.58441	-528.34138	-232.21395	867.41556	-717.07397	-227.82841	869.84301	-532.85341	-223.18224	871.25186	-695.64721	
446	4.45000000	-274.55738	480.95921	-414.01637	-241.09988	370.24733	-405.70560	-311.56435	92.56408	-407.88580	-350.08988	52.03665	-462.82093	-207.08197	40.12954	-351.51241	-164.36062	59.44197	-386.70325	-251.52988	480.20031	-836.53619	-208.34383	376.22331	-815.50893	-298.43776	92.98475	-857.45661	-334.48371	51.73958	-806.77299	-185.80516	37.14294	-905.90116	-137.58880	55.80335	-860.47174	-252.43601	257.46931	-408.36949	-307.79651	373.87092	-370.61310	-330.67110	264.17047	-384.47485	-270.55612	406.78998	-871.27797	-286.43077	287.30373	-892.96538	-178.47129	779.29547	-441.44585	-178.39104	671.04668	-427.43213	-229.57127	649.68082	-388.57893	-288.05346	779.37836	-414.91887	-283.07286	664.79434	-397.14601	-179.15002	767.66422	-818.25151	-170.20659	633.35581	-833.49840	-289.82513	773.48203	-835.54082	-279.32742	632.26685	-846.43956	-148.63113	929.54600	-495.30737	-320.15725	995.40604	-574.28734	-133.18019	931.27114	-741.92586	-316.82143	996.44450	-689.60094	-294.14470	1432.47722	-624.39819	-244.69427	1409.94411	-471.37362	-220.43015	1414.23140	-775.06116	-167.80895	1387.67901	-595.96348	-162.72177	1383.92992	-636.96402	-235.01073	1295.23000	-392.42662	-336.78242	1099.17736	-404.29599	-288.38164	1121.32314	-338.72691	-186.20913	1149.05466	-404.13235	-123.31921	1185.29208	-475.06148	-102.55427	1155.18106	-464.18615	-200.51821	1273.59707	-851.52281	-302.40871	1091.57716	-836.42971	-256.69184	1098.72184	-903.60332	-172.53681	1121.75655	-835.97330	-114.75485	1165.18341	-732.61566	-94.05063	1140.56506	-738.61518	-244.81940	870.00514	-528.35794	-229.41860	867.16449	-717.08701	-225.20449	869.47539	-532.71748	-220.48817	870.94356	-695.73393	
447	4.46000000	-276.33910	481.06088	-413.60676	-243.11112	370.74271	-405.32159	-311.87614	92.41526	-407.86619	-350.08435	52.01412	-462.81279	-207.08815	39.91297	-351.27763	-164.38042	59.39237	-386.45896	-254.67966	480.71443	-836.65349	-210.93784	376.96025	-815.81090	-298.75754	92.84488	-857.56095	-334.46897	51.67078	-806.74192	-185.82171	37.08015	-906.10811	-137.65292	55.79408	-860.49524	-253.86715	257.75985	-407.84209	-309.75168	373.74275	-370.21733	-332.02971	263.96654	-384.18309	-273.51179	407.13907	-871.45367	-288.50437	287.29516	-893.01892	-176.54707	778.54170	-441.20100	-178.35206	671.20820	-426.17269	-229.13110	649.70986	-388.12313	-286.24094	779.76392	-414.70392	-282.48498	665.13478	-396.76515	-177.59863	766.93063	-818.45724	-170.99646	632.49206	-833.30881	-288.17456	774.56605	-835.52434	-280.15799	633.22437	-846.31504	-146.65623	929.38473	-495.02647	-318.72463	994.11799	-574.13072	-131.00666	931.61413	-742.06781	-315.20544	995.30246	-689.63806	-295.20006	1431.49510	-624.24108	-245.97269	1408.80222	-470.99820	-221.54026	1413.18660	-775.05172	-168.82054	1386.73763	-595.83499	-163.64860	1383.05476	-636.86603	-236.40839	1294.03640	-392.41825	-337.52522	1097.71757	-404.45682	-289.47867	1120.05097	-338.69465	-187.05336	1148.07520	-403.63484	-124.06737	1184.76008	-474.14893	-103.25350	1154.65685	-463.28876	-201.78407	1272.46853	-851.65059	-303.55737	1090.43934	-835.35177	-258.13513	1097.52845	-903.11895	-173.69098	1120.79592	-835.65356	-115.43787	1164.69056	-732.69617	-94.71273	1140.07516	-738.76790	-242.38513	869.18469	-528.44551	-226.82284	866.74606	-717.16687	-222.87925	868.73590	-532.70454	-217.90381	870.40986	-696.00079	
448	4.47000000	-277.76093	481.11255	-412.99628	-244.79906	371.09010	-404.75217	-312.20169	92.31839	-407.68414	-350.08708	52.01221	-462.77954	-207.07596	39.66097	-351.11853	-164.42397	59.29426	-386.24254	-256.96517	480.94378	-836.73766	-212.92799	377.50662	-816.48374	-299.01448	92.68793	-857.61858	-334.32605	51.33595	-806.39269	-185.84424	36.98459	-906.30185	-137.72795	55.76674	-860.56767	-255.07844	258.17735	-407.39848	-311.43049	373.62138	-369.79494	-333.47722	263.90276	-383.89402	-275.94805	407.27678	-871.71992	-290.28905	287.23644	-893.31231	-174.95713	777.93379	-440.80365	-178.17572	671.26064	-425.00613	-228.73786	649.71257	-387.63152	-284.63584	780.05122	-414.40163	-281.96827	665.47354	-396.30838	-176.26002	766.38478	-818.71620	-171.53168	631.63251	-833.30402	-286.62115	775.38095	-835.59883	-280.80366	634.02248	-846.44639	-144.86681	929.00392	-494.70577	-317.35487	992.62697	-573.95357	-129.02076	931.59970	-742.07176	-313.71889	994.11716	-689.72012	-296.24111	1430.37984	-624.14841	-247.20530	1407.44444	-470.62246	-222.61097	1411.96157	-775.18723	-169.74723	1385.71669	-595.63670	-164.55447	1381.99246	-636.62888	-237.58063	1292.50622	-392.48087	-338.16161	1095.98472	-404.40930	-290.47624	1118.62782	-338.37610	-187.80802	1146.91227	-403.00357	-124.71718	1183.96929	-473.17655	-103.92159	1153.90241	-462.24733	-202.83842	1270.94644	-851.52668	-304.48599	1088.96738	-834.36361	-259.32473	1096.05514	-902.78274	-174.53957	1119.50518	-835.44005	-115.94866	1163.93051	-732.93961	-95.22550	1139.31756	-739.09895	-240.19955	868.20074	-528.47370	-224.44809	866.10386	-717.18367	-220.65759	867.60432	-532.67192	-215.52226	869.70865	-696.18270	
449	4.48000000	-278.84271	481.24317	-412.38155	-246.13049	371.31696	-404.06682	-312.68849	92.57431	-407.02699	-350.09398	52.02222	-462.72827	-207.10087	39.47987	-350.96132	-164.49442	59.17290	-386.01773	-258.36575	480.93028	-836.89836	-214.29066	377.80751	-817.11292	-299.20398	92.58527	-857.68597	-334.40205	51.41864	-806.54560	-185.87885	36.88493	-906.42628	-137.81167	55.71378	-860.71271	-255.84779	258.38890	-407.10462	-312.83269	373.59700	-369.31232	-334.72028	263.98309	-383.55673	-277.60682	407.25046	-872.13629	-291.64956	287.34861	-893.74203	-173.60478	777.49346	-440.12947	-177.70594	670.76139	-424.41828	-228.38389	649.60160	-387.19705	-283.30211	780.32261	-414.06937	-281.49862	665.87497	-395.82217	-175.12281	766.00182	-819.05499	-171.72649	631.09822	-833.73342	-285.35146	775.89798	-835.80497	-281.05690	634.61311	-846.86624	-143.30420	928.58336	-494.32011	-316.04146	991.19826	-574.04787	-127.25925	931.26445	-741.92261	-312.37807	992.99324	-689.79921	-297.22927	1429.23139	-624.10775	-248.37425	1405.95347	-470.31652	-223.65994	1410.54140	-775.37954	-170.68036	1384.61758	-595.40549	-165.47092	1380.83528	-636.38465	-238.54822	1290.77651	-392.53919	-338.67685	1094.11638	-404.04157	-291.31420	1117.06824	-337.99136	-188.50274	1145.65285	-402.16746	-125.28289	1182.97011	-472.13638	-104.56084	1152.95348	-461.27831	-203.69474	1269.14334	-851.39941	-305.15207	1087.25638	-833.52639	-260.25641	1094.15726	-901.69851	-175.08158	1118.11812	-835.54410	-116.26941	1162.94169	-733.19447	-95.54010	1138.38302	-739.50957	-238.35375	867.28038	-528.42336	-222.34168	865.30892	-717.11277	-218.63685	866.38694	-532.50502	-213.45706	868.92559	-696.17340	
